<svg data-v-423bf9ae="" xmlns="http://www.w3.org/2000/svg" viewBox="0 0 100.34984926106922 60" class="font"><!----><!----><defs data-v-423bf9ae=""><linearGradient data-v-423bf9ae="" gradientTransform="rotate(25)" id="00247b92-773a-4aa8-a882-74e1f78f9ed8" x1="0%" y1="0%" x2="100%" y2="0%"><stop data-v-423bf9ae="" offset="0%" style="stop-color: rgb(87, 93, 96); stop-opacity: 1;"></stop><stop data-v-423bf9ae="" offset="100%" style="stop-color: rgb(246, 225, 205); stop-opacity: 1;"></stop></linearGradient></defs><g data-v-423bf9ae="" id="2facb599-79d8-4814-a416-66f164e04d85" fill="url(#00247b92-773a-4aa8-a882-74e1f78f9ed8)" transform="matrix(5.830903811703725,0,0,5.830903811703725,-3.5568498773195785,-20.34985459687241)"><path d="M3.81 12.29L3.81 12.29Q4.13 12.29 4.42 12.22Q4.72 12.15 4.94 12.00Q5.17 11.85 5.30 11.61Q5.44 11.38 5.44 11.06L5.44 11.06Q5.44 10.68 5.25 10.41Q5.06 10.14 4.74 9.94Q4.42 9.74 4.02 9.57Q3.62 9.41 3.20 9.23Q2.78 9.04 2.38 8.82Q1.98 8.60 1.66 8.29Q1.34 7.97 1.15 7.54Q0.96 7.10 0.96 6.50L0.96 6.50Q0.96 5.81 1.22 5.25Q1.49 4.70 1.98 4.31Q2.47 3.92 3.17 3.71Q3.86 3.49 4.72 3.49L4.72 3.49Q4.95 3.49 5.26 3.51Q5.57 3.53 5.93 3.57Q6.28 3.61 6.66 3.68Q7.03 3.75 7.40 3.85L7.40 3.85L7.05 5.46L6.92 5.51Q6.60 5.37 6.29 5.27Q5.97 5.17 5.67 5.10Q5.37 5.04 5.11 5.01Q4.85 4.98 4.66 4.98L4.66 4.98Q4.00 4.98 3.61 5.26Q3.21 5.54 3.21 6.08L3.21 6.08Q3.21 6.47 3.40 6.73Q3.60 6.99 3.91 7.20Q4.23 7.40 4.63 7.57Q5.04 7.74 5.46 7.92Q5.88 8.11 6.28 8.33Q6.69 8.54 7.00 8.86Q7.32 9.17 7.51 9.60Q7.70 10.03 7.70 10.62L7.70 10.62Q7.70 11.32 7.43 11.90Q7.16 12.48 6.65 12.90Q6.14 13.32 5.42 13.55Q4.70 13.78 3.79 13.78L3.79 13.78Q3.46 13.78 3.07 13.74Q2.68 13.71 2.27 13.63Q1.85 13.56 1.43 13.43Q1.00 13.31 0.61 13.13L0.61 13.13L0.96 11.52L1.10 11.45Q1.49 11.63 1.85 11.79Q2.20 11.95 2.53 12.06Q2.86 12.17 3.18 12.23Q3.49 12.29 3.81 12.29ZM13.84 10.36L15.78 3.63L17.82 3.63L14.55 13.64L11.77 13.64L8.51 3.63L11.08 3.63L13.02 10.36L13.36 11.81L13.50 11.81L13.84 10.36Z"></path></g><!----><!----></svg>