<svg data-v-423bf9ae="" xmlns="http://www.w3.org/2000/svg" viewBox="0 0 362.89831714654065 60" class="font"><!----><!----><!----><g data-v-423bf9ae="" id="e63c1e0d-195d-4fb6-b4fe-96b72a1f89e1" fill="black" transform="matrix(4.325882939406962,0,0,4.325882939406962,-2.1196813942235906,-13.323718169660452)"><path d="M0.49 11.14C0.99 13.01 2.46 14.14 4.48 14.14C6.38 14.14 7.94 13.02 7.94 11.37C7.94 7.80 2.17 9.07 2.17 6.24C2.17 5.28 3.07 4.62 4.37 4.62C5.59 4.62 6.47 5.33 6.82 6.51L7.90 6.51C7.52 4.80 6.24 3.64 4.37 3.64C2.44 3.64 1.08 4.72 1.08 6.24C1.08 10.05 6.83 8.69 6.83 11.40C6.83 12.40 5.84 13.16 4.48 13.16C3.14 13.16 2.03 12.49 1.60 11.14ZM15.26 6.72L15.26 12.18C14.32 12.82 13.37 13.22 12.54 13.22C11.45 13.22 10.85 12.60 10.85 11.42L10.85 6.72L9.80 6.72L9.80 11.47C9.80 13.22 10.74 14.14 12.28 14.14C13.36 14.14 14.31 13.78 15.39 13.06L15.57 14L16.31 14L16.31 6.72ZM19.38 5.10C19.81 5.10 20.17 4.73 20.17 4.27C20.17 3.85 19.81 3.50 19.38 3.50C18.93 3.50 18.58 3.85 18.58 4.27C18.58 4.73 18.93 5.10 19.38 5.10ZM18.16 16.90C19.19 16.90 19.88 16.16 19.88 14.98L19.88 6.72L18.84 6.72L18.84 14.91C18.84 15.64 18.45 15.97 17.91 15.97C17.63 15.97 17.37 15.92 17.16 15.85L17.05 16.74C17.33 16.84 17.74 16.90 18.16 16.90ZM25.09 6.58C23.37 6.58 22.15 7.56 22.05 9.02L23.04 9.02C23.10 8.18 23.90 7.49 25.05 7.49C26.33 7.49 27.09 8.16 27.09 9.67L27.09 9.94L24.82 9.93C22.90 9.93 21.76 10.79 21.76 12.01C21.76 13.27 22.81 14.14 24.15 14.14C25.44 14.14 26.46 13.55 27.22 12.96L27.43 14L28.11 14L28.11 9.67C28.11 7.70 27.02 6.58 25.09 6.58ZM22.79 12.00C22.79 11.19 23.51 10.79 24.84 10.79L27.09 10.79L27.09 12.11C26.33 12.70 25.38 13.22 24.36 13.22C23.51 13.22 22.79 12.78 22.79 12.00ZM35.42 6.72L32.97 13.15L30.46 6.72L29.30 6.72L32.33 14L32.62 14L32.37 14.62C31.98 15.55 31.57 16.11 30.67 16.11C30.27 16.11 29.88 16.03 29.53 15.92L29.39 16.73C29.78 16.88 30.25 16.95 30.62 16.95C32.03 16.95 32.66 16.14 33.22 14.81L36.55 6.72ZM48.33 3.78L44.87 12.94L41.26 3.78L40.03 3.78L44.25 14L45.44 14L49.48 3.78ZM52.92 6.58C51.20 6.58 49.98 7.56 49.88 9.02L50.88 9.02C50.93 8.18 51.73 7.49 52.88 7.49C54.17 7.49 54.92 8.16 54.92 9.67L54.92 9.94L52.65 9.93C50.74 9.93 49.59 10.79 49.59 12.01C49.59 13.27 50.64 14.14 51.98 14.14C53.27 14.14 54.29 13.55 55.05 12.96L55.26 14L55.94 14L55.94 9.67C55.94 7.70 54.85 6.58 52.92 6.58ZM50.62 12.00C50.62 11.19 51.34 10.79 52.67 10.79L54.92 10.79L54.92 12.11C54.17 12.70 53.21 13.22 52.19 13.22C51.34 13.22 50.62 12.78 50.62 12.00ZM58.88 5.10C59.32 5.10 59.68 4.73 59.68 4.27C59.68 3.85 59.32 3.50 58.88 3.50C58.44 3.50 58.09 3.85 58.09 4.27C58.09 4.73 58.44 5.10 58.88 5.10ZM59.37 6.72L58.32 6.72L58.32 14L59.37 14ZM67.59 3.08L67.59 7.66C66.95 6.94 66.07 6.58 64.99 6.58C62.94 6.58 61.31 8.20 61.31 10.33C61.31 12.52 62.93 14.14 65.00 14.14C66.19 14.14 67.09 13.69 67.73 12.87L67.93 14L68.60 14L68.60 3.08ZM65.03 13.23C63.60 13.23 62.37 11.97 62.37 10.33C62.37 8.72 63.60 7.49 65.03 7.49C66.23 7.49 67.09 8.11 67.56 9.03L67.56 11.68C67.07 12.63 66.25 13.23 65.03 13.23ZM76.20 6.72L73.75 13.15L71.25 6.72L70.08 6.72L73.11 14L73.40 14L73.15 14.62C72.76 15.55 72.35 16.11 71.46 16.11C71.05 16.11 70.66 16.03 70.31 15.92L70.17 16.73C70.56 16.88 71.04 16.95 71.40 16.95C72.81 16.95 73.44 16.14 74.00 14.81L77.34 6.72ZM81.35 6.58C79.63 6.58 78.41 7.56 78.32 9.02L79.31 9.02C79.37 8.18 80.16 7.49 81.31 7.49C82.60 7.49 83.36 8.16 83.36 9.67L83.36 9.94L81.09 9.93C79.17 9.93 78.02 10.79 78.02 12.01C78.02 13.27 79.07 14.14 80.42 14.14C81.70 14.14 82.73 13.55 83.48 12.96L83.69 14L84.38 14L84.38 9.67C84.38 7.70 83.29 6.58 81.35 6.58ZM79.06 12.00C79.06 11.19 79.77 10.79 81.10 10.79L83.36 10.79L83.36 12.11C82.60 12.70 81.65 13.22 80.63 13.22C79.77 13.22 79.06 12.78 79.06 12.00Z"></path></g><!----><!----></svg>